<?plantuml 1.2026.2?><svg xmlns="http://www.w3.org/2000/svg" xmlns:xlink="http://www.w3.org/1999/xlink" contentStyleType="text/css" data-diagram-type="DESCRIPTION" height="424px" preserveAspectRatio="none" style="width:1042px;height:424px;background:#FFFFFF;" version="1.1" viewBox="0 0 1042 424" width="1042px" zoomAndPan="magnify"><title>AI in Production - Final project - Group 9 - Data Flow Diagram</title><defs/><g><g class="title" data-source-line="16"><text fill="#000000" font-family="sans-serif" font-size="14" font-weight="bold" lengthAdjust="spacing" textLength="408.3584" x="310.1905" y="24.5332">AI in Production - Final project - Group 9 - Data Flow Diagram</text></g><!--entity user--><g class="entity" data-qualified-name="user" data-source-line="19" id="ent0002"><rect fill="#EBF5FB" height="37.6094" rx="2.5" ry="2.5" style="stroke:#2874A6;stroke-width:0.5;" width="78.3584" x="325.22" y="54.4194"/><text fill="#000000" font-family="sans-serif" font-size="14" lengthAdjust="spacing" textLength="58.3584" x="335.22" y="78.9526">End User</text></g><!--entity admin--><g class="entity" data-qualified-name="admin" data-source-line="20" id="ent0003"><rect fill="#EBF5FB" height="37.6094" rx="2.5" ry="2.5" style="stroke:#2874A6;stroke-width:0.5;" width="93.1309" x="147.83" y="203.3894"/><text fill="#000000" font-family="sans-serif" font-size="14" lengthAdjust="spacing" textLength="73.1309" x="157.83" y="227.9226">Admin User</text></g><!--entity raw_data--><g class="entity" data-qualified-name="raw_data" data-source-line="21" id="ent0004"><rect fill="#EBF5FB" height="55.2188" rx="2.5" ry="2.5" style="stroke:#2874A6;stroke-width:0.5;" width="148.3857" x="749.2" y="45.6094"/><text fill="#000000" font-family="sans-serif" font-size="14" lengthAdjust="spacing" textLength="128.3857" x="759.2" y="70.1426">Source Data System</text><text fill="#000000" font-family="sans-serif" font-size="14" lengthAdjust="spacing" textLength="101.9307" x="772.4275" y="87.752">(Database/CSV)</text></g><!--entity p_preprocess--><g class="entity" data-qualified-name="p_preprocess" data-source-line="24" id="ent0005"><ellipse cx="823.3952" cy="222.1964" fill="#FCF3CF" rx="71.2352" ry="16.647" style="stroke:#B7950B;stroke-width:0.5;"/><text fill="#000000" font-family="sans-serif" font-size="14" lengthAdjust="spacing" textLength="104.2686" x="771.2609" y="227.5011">Preprocess Data</text></g><!--entity p_train--><g class="entity" data-qualified-name="p_train" data-source-line="25" id="ent0006"><ellipse cx="665.4049" cy="375.6684" fill="#FCF3CF" rx="68.5949" ry="16.119" style="stroke:#B7950B;stroke-width:0.5;"/><text fill="#000000" font-family="sans-serif" font-size="14" lengthAdjust="spacing" textLength="97.2549" x="616.7775" y="380.973">Train ML Model</text></g><!--entity p_serve--><g class="entity" data-qualified-name="p_serve" data-source-line="26" id="ent0007"><ellipse cx="364.3979" cy="222.201" fill="#FCF3CF" rx="88.7079" ry="20.1416" style="stroke:#B7950B;stroke-width:0.5;"/><text fill="#000000" font-family="sans-serif" font-size="14" lengthAdjust="spacing" textLength="147.0752" x="290.8603" y="227.5056">Serve Online Prediction</text></g><!--entity p_prometheus--><g class="entity" data-qualified-name="p_prometheus" data-source-line="27" id="ent0008"><ellipse cx="649.398" cy="222.1947" fill="#FCF3CF" rx="67.588" ry="27.3653" style="stroke:#B7950B;stroke-width:0.5;"/><text fill="#000000" font-family="sans-serif" font-size="14" lengthAdjust="spacing" textLength="93.3584" x="602.7188" y="219.4643">Scrape Metrics</text><text fill="#000000" font-family="sans-serif" font-size="14" lengthAdjust="spacing" textLength="84.8066" x="606.9946" y="237.0736">(Prometheus)</text></g><!--entity p_grafana--><g class="entity" data-qualified-name="p_grafana" data-source-line="28" id="ent0009"><ellipse cx="333.3975" cy="375.6687" fill="#FCF3CF" rx="89.6575" ry="25.5393" style="stroke:#B7950B;stroke-width:0.5;"/><text fill="#000000" font-family="sans-serif" font-size="14" lengthAdjust="spacing" textLength="135.4063" x="265.6944" y="375.7093">Visualize Dashboards</text><text fill="#000000" font-family="sans-serif" font-size="14" lengthAdjust="spacing" textLength="59.9102" x="303.4424" y="393.3186">(Grafana)</text></g><!--entity ds_model--><g class="entity" data-qualified-name="ds_model" data-source-line="31" id="ent0010"><path d="M903.05,353.5594 C903.05,343.5594 964.3947,343.5594 964.3947,343.5594 C964.3947,343.5594 1025.7395,343.5594 1025.7395,353.5594 L1025.7395,397.7781 C1025.7395,407.7781 964.3947,407.7781 964.3947,407.7781 C964.3947,407.7781 903.05,407.7781 903.05,397.7781 L903.05,353.5594" fill="#EAFAF1" style="stroke:#239B56;stroke-width:0.5;"/><path d="M903.05,353.5594 C903.05,363.5594 964.3947,363.5594 964.3947,363.5594 C964.3947,363.5594 1025.7395,363.5594 1025.7395,353.5594" fill="none" style="stroke:#239B56;stroke-width:0.5;"/><text fill="#000000" font-family="sans-serif" font-size="14" lengthAdjust="spacing" textLength="86.3926" x="921.1984" y="382.0926">Local Storage</text><text fill="#000000" font-family="sans-serif" font-size="14" lengthAdjust="spacing" textLength="102.6895" x="913.05" y="399.702">(Model Registry)</text></g><!--entity ds_metrics--><g class="entity" data-qualified-name="ds_metrics" data-source-line="32" id="ent0011"><path d="M6,362.3694 C6,352.3694 65.3965,352.3694 65.3965,352.3694 C65.3965,352.3694 124.793,352.3694 124.793,362.3694 L124.793,388.9788 C124.793,398.9788 65.3965,398.9788 65.3965,398.9788 C65.3965,398.9788 6,398.9788 6,388.9788 L6,362.3694" fill="#EAFAF1" style="stroke:#239B56;stroke-width:0.5;"/><path d="M6,362.3694 C6,372.3694 65.3965,372.3694 65.3965,372.3694 C65.3965,372.3694 124.793,372.3694 124.793,362.3694" fill="none" style="stroke:#239B56;stroke-width:0.5;"/><text fill="#000000" font-family="sans-serif" font-size="14" lengthAdjust="spacing" textLength="98.793" x="16" y="390.9026">Time-Series DB</text></g><!--link raw_data to p_preprocess--><g class="link" data-entity-1="ent0004" data-entity-2="ent0005" data-link-type="dependency" data-source-line="37" id="lnk12"><path d="M823.4,101.1794 C823.4,131.6794 823.4,174.3294 823.4,199.2894" fill="none" id="raw_data-to-p_preprocess" style="stroke:#34495E;stroke-width:1;"/><polygon fill="#34495E" points="823.4,205.2894,827.4,196.2894,823.4,200.2894,819.4,196.2894,823.4,205.2894" style="stroke:#34495E;stroke-width:1;"/><text fill="#000000" font-family="sans-serif" font-size="13" lengthAdjust="spacing" textLength="115.5845" x="824.4" y="153.3245">Historical User Data</text></g><!--link p_preprocess to p_train--><g class="link" data-entity-1="ent0005" data-entity-2="ent0006" data-link-type="dependency" data-source-line="38" id="lnk13"><path d="M812.86,238.9994 C799.79,257.9594 776.16,290.1194 751.4,313.5594 C732.24,331.6894 712.4832,345.5401 694.4432,357.0101" fill="none" id="p_preprocess-to-p_train" style="stroke:#34495E;stroke-width:1;"/><polygon fill="#34495E" points="689.38,360.2294,699.121,358.776,693.5994,357.5467,694.8287,352.025,689.38,360.2294" style="stroke:#34495E;stroke-width:1;"/><text fill="#000000" font-family="sans-serif" font-size="13" lengthAdjust="spacing" textLength="116.3335" x="782.41" y="294.0545">Processed Features</text><text fill="#000000" font-family="sans-serif" font-size="13" lengthAdjust="spacing" textLength="50.5908" x="815.2813" y="310.4061">&amp; Labels</text></g><!--link p_train to ds_model--><g class="link" data-entity-1="ent0006" data-entity-2="ent0010" data-link-type="dependency" data-source-line="39" id="lnk14"><path d="M734.37,375.6694 C785.25,375.6694 847.86,375.6694 896.88,375.6694" fill="none" id="p_train-to-ds_model" style="stroke:#34495E;stroke-width:1;"/><polygon fill="#34495E" points="902.88,375.6694,893.88,371.6694,897.88,375.6694,893.88,379.6694,902.88,375.6694" style="stroke:#34495E;stroke-width:1;"/><text fill="#000000" font-family="sans-serif" font-size="13" lengthAdjust="spacing" textLength="133.6626" x="752.02" y="353.1645">Trained Model Artifacts</text><text fill="#000000" font-family="sans-serif" font-size="13" lengthAdjust="spacing" textLength="28.8882" x="804.4072" y="369.5161">(.pkl)</text></g><!--reverse link p_serve to ds_model--><g class="link" data-entity-1="ent0007" data-entity-2="ent0010" data-link-type="dependency" data-source-line="42" id="lnk16"><path d="M445.5043,234.2369 C490.3043,242.3369 541.32,255.4394 587.4,279.5594 C607.77,290.2294 605.67,303.5994 626.4,313.5594 C650.92,325.3394 812.25,351.3794 902.87,365.3694" fill="none" id="p_serve-backto-ds_model" style="stroke:#34495E;stroke-width:1;"/><polygon fill="#34495E" points="439.6,233.1694,447.7447,238.7068,444.5202,234.059,449.1681,230.8345,439.6,233.1694" style="stroke:#34495E;stroke-width:1;"/><text fill="#000000" font-family="sans-serif" font-size="13" lengthAdjust="spacing" textLength="66.479" x="651.9781" y="294.0545">Model Data</text><text fill="#000000" font-family="sans-serif" font-size="13" lengthAdjust="spacing" textLength="115.6353" x="627.4" y="310.4061">(Loaded on Startup)</text></g><!--link user to p_serve--><g class="link" data-entity-1="ent0002" data-entity-2="ent0007" data-link-type="dependency" data-source-line="43" id="lnk17"><path d="M330.76,92.3094 C316.79,101.7694 302.07,114.7494 294.4,130.8294 C287.89,144.4694 287.87,151.1994 294.4,164.8294 C302.08,180.8694 311.8236,190.4574 325.7936,199.8674" fill="none" id="user-to-p_serve" style="stroke:#34495E;stroke-width:1;"/><polygon fill="#34495E" points="330.77,203.2194,325.5401,194.8738,326.623,200.426,321.0708,201.5089,330.77,203.2194" style="stroke:#34495E;stroke-width:1;"/><text fill="#000000" font-family="sans-serif" font-size="13" lengthAdjust="spacing" textLength="81.6372" x="300.0909" y="145.3245">POST /predict</text><text fill="#000000" font-family="sans-serif" font-size="13" lengthAdjust="spacing" textLength="91.019" x="295.4" y="161.6761">(User Features)</text></g><!--reverse link user to p_serve--><g class="link" data-entity-1="ent0002" data-entity-2="ent0007" data-link-type="dependency" data-source-line="44" id="lnk19"><path d="M378.5068,97.5727 C384.4868,108.3227 388.32,117.2394 391.4,130.8294 C394.73,145.5694 394.74,150.0894 391.4,164.8294 C388.44,177.8494 382.09,191.3694 376.29,201.8994" fill="none" id="user-backto-p_serve" style="stroke:#34495E;stroke-width:1;"/><polygon fill="#34495E" points="375.59,92.3294,376.4696,102.1389,378.0206,96.6988,383.4607,98.2499,375.59,92.3294" style="stroke:#34495E;stroke-width:1;"/><text fill="#000000" font-family="sans-serif" font-size="13" lengthAdjust="spacing" textLength="119.958" x="394.9" y="145.3245">Prediction Response</text><text fill="#000000" font-family="sans-serif" font-size="13" lengthAdjust="spacing" textLength="69.3545" x="420.2018" y="161.6761">(Probability)</text></g><!--link p_serve to p_prometheus--><g class="link" data-entity-1="ent0007" data-entity-2="ent0008" data-link-type="dependency" data-source-line="47" id="lnk20"><path d="M453.4,222.1994 C494.72,222.1994 537.06,222.1994 575.4,222.1994" fill="none" id="p_serve-to-p_prometheus" style="stroke:#34495E;stroke-width:1;"/><polygon fill="#34495E" points="581.4,222.1994,572.4,218.1994,576.4,222.1994,572.4,226.1994,581.4,222.1994" style="stroke:#34495E;stroke-width:1;"/><text fill="#000000" font-family="sans-serif" font-size="13" lengthAdjust="spacing" textLength="92.4727" x="471.46" y="215.6945">Expose /metrics</text></g><!--link p_prometheus to ds_metrics--><g class="link" data-entity-1="ent0008" data-entity-2="ent0011" data-link-type="dependency" data-source-line="48" id="lnk21"><path d="M596.58,239.6594 C563.72,250.2694 520.76,264.7894 483.4,279.5594 C449.36,293.0194 443.42,302.9394 408.4,313.5594 C329.95,337.3594 307.09,329.1194 226.4,343.5594 C192.77,349.5794 161.177,355.6306 130.847,361.6006" fill="none" id="p_prometheus-to-ds_metrics" style="stroke:#34495E;stroke-width:1;"/><polygon fill="#34495E" points="124.96,362.7594,134.5631,364.9459,129.8659,361.7937,133.018,357.0965,124.96,362.7594" style="stroke:#34495E;stroke-width:1;"/><text fill="#000000" font-family="sans-serif" font-size="13" lengthAdjust="spacing" textLength="98.9663" x="484.4" y="302.0545">Time-series Data</text></g><!--link ds_metrics to p_grafana--><g class="link" data-entity-1="ent0011" data-entity-2="ent0009" data-link-type="dependency" data-source-line="49" id="lnk22"><path d="M125.21,375.6694 C159.99,375.6694 198.52,375.6694 237.47,375.6694" fill="none" id="ds_metrics-to-p_grafana" style="stroke:#34495E;stroke-width:1;"/><polygon fill="#34495E" points="243.47,375.6694,234.47,371.6694,238.47,375.6694,234.47,379.6694,243.47,375.6694" style="stroke:#34495E;stroke-width:1;"/><text fill="#000000" font-family="sans-serif" font-size="13" lengthAdjust="spacing" textLength="82.3608" x="143.27" y="369.1645">Query Results</text></g><!--reverse link admin to p_grafana--><g class="link" data-entity-1="ent0003" data-entity-2="ent0009" data-link-type="dependency" data-source-line="50" id="lnk24"><path d="M212.1801,246.0948 C226.8301,264.7148 247.01,289.5594 269.4,313.5594 C281.34,326.3694 295.34,339.8894 307.19,350.9394" fill="none" id="admin-backto-p_grafana" style="stroke:#34495E;stroke-width:1;"/><polygon fill="#34495E" points="208.47,241.3794,210.8915,250.9259,211.5617,245.3089,217.1787,245.9792,208.47,241.3794" style="stroke:#34495E;stroke-width:1;"/><text fill="#000000" font-family="sans-serif" font-size="13" lengthAdjust="spacing" textLength="133.6816" x="270.4" y="302.0545">Interactive Dashboards</text></g><?plantuml-src VLJRRjim37ttLn0Pi3KFMRQrMTS26-1Sl1L8aQn9kvS2XMAphbP7CYIvQJRitqT9bkrW5py44SbpT0v9MpzoKJB5jb1fJ9b6-1a1FMEMFkPALYARo48gU95CakD9udDIPQZg-FZqRFHc7FsATCEaC3LCvCK_kMRZP9IC_-Hwz-7q97v_m9KnmpR_aJMBapXv-nUguxFnw92AAILtTVhuvEHiDEiaftZFgiAiyTd41S_55eM1b7vGHP7XXip45y05B9NCgjHmAM002HUiW5B9xsIPpfz9MWbdz6zAkY4fv0wcdELqGnIzWjapqLd4J10bHmr7Lw5NkX-rVUlDH0RN6bKFcBQJKTrad6r9I9DczjZDhsIbKlGILdjjS7ihZgPr8uUJrKtVuHJRtTdsMcNaAaMjhQB54olqyDfl0waAUz5RAYnzcQDs7ELTsKJRohLY9F1o3fSomw8kD3ROrgnGFI4iHC45qlMOSTVKkbZRRASuLQn4k4IZUAh93UdTedd0IlSR7I7ImcwuhbZ1VzXUw8UDP2gpuC-AtJF10ZBtHzi6tp8Z5UgesRpUNAOqCnjcEHBUkO8hpBasQkzfCdstjU4ERCstE22RTixJSLFbFTZRFeO7fl4wXcI--BPgWxR2DPAB79QyHDkfA0mD1fdSYS6dWmd0ENmXJP8k8C5sGPoZwA2c1Rg942OCFuC4cQd8_Aru2NEsmK97eMoWUFvW21US4j398vXlIAmClsUfiIr-NJuMVUkW7h2Tze6FXcLGbKwCcpXnUYuhcsZcacN4J-_QoZ1bgjAje-fu2B3bOhM6OUdtY93EVB3JZqAXlyrnd7UsZeQfIoaq-jNQi0qlkDbx1niBhIEjWOOnzAMxWaG-UoubRS4mpFiW7VIt-s2xQVT5r_jYnzR9TcwfrvK0NojKUokTFbpsWf3n9jrdWQekx3UCniAVkgz1z1i0?></g></svg>